<svg id="Hathway-logo" xmlns="http://www.w3.org/2000/svg" width="179.78" height="36.288" viewBox="0 0 179.78 36.288">
  <path id="Path_361" data-name="Path 361" d="M7.936,26.518,16.972,0h8.473l-2.5,7.323c-.342,1-.62,1.787-.833,2.342s-.432,1.1-.654,1.612A12.616,12.616,0,0,1,24.7,9,7.739,7.739,0,0,1,28,8.263q2.829,0,3.89,1.711t.061,4.672L27.9,26.518H19.277l3.042-8.929a4.3,4.3,0,0,0,.358-1.822c-.07-.327-.323-.491-.767-.491a1.857,1.857,0,0,0-1.344.584,4.355,4.355,0,0,0-.98,1.729l-3.042,8.929H7.936Zm34.1-8.9a2.277,2.277,0,0,0-.014,1.822,1.409,1.409,0,0,0,1.364.7,2.825,2.825,0,0,0,1.839-.683,3.943,3.943,0,0,0,1.226-1.833,2.366,2.366,0,0,0,.028-1.863,1.4,1.4,0,0,0-1.361-.7,2.821,2.821,0,0,0-1.843.712,4.078,4.078,0,0,0-1.238,1.851Zm1.657,8.9.91-2.669a15.321,15.321,0,0,1-3.546,2.523,7.665,7.665,0,0,1-3.372.812,4.194,4.194,0,0,1-4.218-2.616q-1.131-2.619.27-6.739a16.316,16.316,0,0,1,4.338-6.937,8.888,8.888,0,0,1,6.058-2.628,4.977,4.977,0,0,1,2.741.713,4.742,4.742,0,0,1,1.739,2.2l.8-2.342h8.228L51.611,26.518Zm11.995,0,3.806-11.171H57.046L59.267,8.83h2.447l1.994-5.851H72.3L70.3,8.83H72.75L70.53,15.347H68.083L64.277,26.518Zm13.5,0L78.218,0h8.473L84.2,7.323c-.342,1-.621,1.787-.833,2.342s-.425,1.079-.654,1.612A12.617,12.617,0,0,1,85.947,9a7.738,7.738,0,0,1,3.295-.742q2.829,0,3.89,1.711t.061,4.672L89.147,26.518H80.522l3.042-8.929a4.305,4.305,0,0,0,.358-1.822c-.07-.327-.324-.491-.767-.491a1.858,1.858,0,0,0-1.344.584,4.358,4.358,0,0,0-.98,1.729l-3.042,8.929H69.182Zm27.417,0-.9-17.688h9.069l-.8,6.756c-.052.444-.129.929-.238,1.454s-.242,1.069-.384,1.624c.314-.648.6-1.221.859-1.717q.361-.7.785-1.361l4.118-6.756h5.647l-.731,6.961c-.034.321-.085.73-.173,1.226s-.187,1.045-.31,1.647q.406-.877.854-1.734t.941-1.682l3.8-6.418H128.2L114.573,26.518h-6.756l.393-5.559c0-.082.011-.2.024-.38a17.96,17.96,0,0,1,.26-2.324c-.275.584-.681,1.314-1.207,2.19-.152.239-.248.4-.3.5l-3.407,5.577H96.6Z" transform="translate(-4.336)" fill="#18458a"/>
  <path id="Path_362" data-name="Path 362" d="M266.891,13.158c-11.194,19.348,10,23.933,22.659,15.6a.608.608,0,0,0,.056-.049l-1.039-2.717c-.006-.018-.033,0-.044.008-9.028,5.284-22.348,4.137-20.488-5.645A19.727,19.727,0,0,1,278.748,7C295.525-.385,301,12.642,289.657,20.548c-1.449,1.011-1.581-.039-1.627-.249L291.622,9.47h-6.548l-.637,1.874a3.477,3.477,0,0,0-3.557-2.321c-3.288,0-6.673,2.908-8.28,7.634-1.559,4.585.023,7.47,3.144,7.47,1.811,0,3.556-.872,5.5-2.661-1.389,3.7,2.329,4.3,4.075,3.972,11.3-2.129,14.854-12.31,14.113-17.622-1.232-8.829-21.253-10.83-32.543,5.342Zm12.314,3.33a2.773,2.773,0,0,1,2.449-2.041c1.059,0,1.479.811,1.061,2.041a2.7,2.7,0,0,1-2.44,2.013c-1.031,0-1.489-.783-1.071-2.013" transform="translate(-144.104 -0.584)" fill="#d0342b" fill-rule="evenodd"/>
  <path id="Path_363" data-name="Path 363" d="M158.681,35.268l-4.152,5.08-12.8-.016a20.347,20.347,0,0,1-9.062,2.073,18.548,18.548,0,0,1-9.137-2.131L2.359,40.259,0,46.721l158.455.012L179.78,19.115h-8.83l-2.792,4.415c-.389.631-1.426,2.348-2.982,5.081a29.273,29.273,0,0,0,.529-4.976l.2-4.52h-9.431l2.208,16.153Z" transform="translate(0 -10.445)" fill="#18458a" fill-rule="evenodd"/>
</svg>
